<svg width="358" height="260" viewBox="0 0 358 260" fill="none" xmlns="http://www.w3.org/2000/svg">
<path d="M85.2867 131.929C85.8049 132.446 78.8387 223.531 79.2992 223.015C79.8174 222.498 121.212 217.731 121.212 217.731C121.212 217.731 121.154 150.652 120.406 137.615C119.715 124.521 116.836 115.676 116.836 115.676L85.2867 131.929Z" fill="#F6B399"/>
<path d="M319.665 197.228C319.665 197.975 317.074 259.943 317.074 259.943H100.717C100.717 259.943 117.873 212.677 129.215 181.262C140.557 149.905 168.019 142.267 184.888 142.267L271.361 144.909C295.254 144.909 319.665 162.942 319.665 197.228Z" fill="#6CBE45"/>
<path d="M274.932 149.044C272.513 156.395 267.677 162.884 260.538 166.215C256.911 167.881 253.054 168.915 249.139 169.604C244.764 170.408 240.273 170.867 235.84 171.04C231.407 171.269 226.916 171.212 222.483 171.097C218.453 170.982 214.423 170.925 210.45 170.638C204.405 170.178 198.187 169.144 193.063 165.871C193.524 167.077 191.624 167.536 191.164 166.388C190.818 165.469 190.473 164.55 190.127 163.574C190.07 163.459 190.07 163.344 190.012 163.286C189.724 162.368 198.015 161.449 197.784 160.53C195.885 152.777 190.876 142.841 193.351 135.203C194.503 131.7 192.776 129.747 195.654 127.335C198.533 124.923 202.102 123.602 205.672 122.511C214.02 119.984 222.598 117.859 231.234 116.48C239.812 115.102 248.621 114.47 257.257 115.389C260.826 115.791 264.453 116.538 267.562 118.376C270.844 120.328 273.032 123.43 274.471 126.933C277.234 133.939 277.292 141.922 274.932 149.044Z" fill="#6CBE45"/>
<path d="M260.999 129.517C260.366 136.581 247.009 145.368 242.576 148.01C233.652 153.236 224.671 158.347 215.805 163.574C214.711 164.205 213.847 163.976 212.638 163.746C211.256 163.459 205.269 156.797 204.636 155.533C199.454 144.794 207.399 138.936 216.208 131.24C220.583 127.392 225.822 124.521 231.464 122.855C237.107 121.132 243.094 120.615 248.966 121.419C251.73 121.764 254.551 122.338 257.027 123.602C260.078 125.21 261.172 127.277 260.999 129.517Z" fill="#141213"/>
<path d="M214.249 162.999C210.334 159.783 207.686 155.361 206.823 150.365C206.592 149.101 204.692 149.675 204.923 150.882C205.901 156.108 208.722 160.989 212.868 164.378C213.271 164.722 213.846 164.78 214.249 164.378C214.595 164.033 214.652 163.344 214.249 162.999Z" fill="#141213"/>
<path d="M255.701 125.44C254.953 127.679 253.974 129.804 252.707 131.757C251.556 133.537 250.002 136.122 247.814 136.409C246.547 136.581 245.281 136.007 244.072 135.605C242.747 135.203 241.423 134.801 240.157 134.399C237.508 133.595 234.86 132.906 232.212 132.216C226.857 130.838 221.388 129.747 215.976 128.885C210.737 128.024 205.441 127.565 200.201 127.048C196.344 126.646 192.141 125.899 189.378 122.798C186.96 122.855 184.657 122.453 182.642 120.903C180.569 119.352 179.072 116.997 178.669 114.241C178.266 111.541 178.9 108.785 180.569 106.717C181.548 105.454 182.872 104.535 184.369 104.075C183.563 103.271 183.102 102.123 183.218 100.859C183.333 99.366 184.139 98.2174 185.29 97.5857C183.966 95.231 183.39 92.4169 183.736 89.6028C184.599 82.8834 190.414 79.3801 195.999 77.8869C199.05 77.0829 202.447 76.8531 205.498 78.0592C207.225 78.7484 208.78 79.8396 210.046 81.2753C210.277 80.4713 210.68 79.7821 211.255 79.2078C212.349 78.174 213.788 77.772 215.228 77.8869C216.61 78.0018 218.855 78.4038 220.294 79.495C220.467 79.2652 220.64 79.0355 220.812 78.8632C224.036 75.5897 229.045 75.6471 233.018 76.968C237.508 78.5187 241.366 81.6773 244.705 85.1806C251.268 92.1297 256.392 101.146 257.428 111.139C257.716 115.906 257.198 120.903 255.701 125.44Z" fill="#141213"/>
<path d="M221.216 144.564C237.336 144.564 250.405 130.911 250.405 114.068C250.405 97.226 237.336 83.5726 221.216 83.5726C205.095 83.5726 192.026 97.226 192.026 114.068C192.026 130.911 205.095 144.564 221.216 144.564Z" fill="#F6B399"/>
<path d="M237.739 158.52L219.489 163.459L215.574 156.222L214.537 154.327L212.407 150.307L229.506 141.578L237.739 158.52Z" fill="#F6B399"/>
<path d="M243.439 126.071C243.439 141.75 232.155 153.581 214.998 154.442C199.281 155.246 187.19 144.794 187.19 129.115C187.19 113.437 199.281 97.6431 214.998 97.6431C230.715 97.6431 243.439 110.393 243.439 126.071Z" fill="#F6B399"/>
<path d="M169.631 246.733H77.2854C66.2315 246.733 55.6956 237.774 53.7382 226.748L44.2387 172.992C42.2813 161.966 49.6506 153.006 60.7621 153.006H153.108C164.162 153.006 174.698 161.966 176.655 172.992L186.155 226.748C188.055 237.774 180.685 246.733 169.631 246.733Z" fill="#141213"/>
<path d="M209.184 233.467C209.184 235.649 209.184 237.832 209.184 239.957C209.184 240.646 208.551 241.048 207.918 240.933C203.082 239.957 198.188 239.669 193.294 239.899C193.294 240.244 193.294 240.531 193.294 240.875C193.294 242.139 191.337 242.139 191.337 240.875C191.279 238.693 191.279 236.511 191.279 234.328C191.279 233.524 191.337 232.663 192.028 232.146C192.776 231.514 193.87 231.687 194.791 231.744C199.282 231.974 203.772 232.261 208.206 232.491C208.781 232.491 209.184 232.893 209.184 233.467Z" fill="#FFD236"/>
<path d="M233.018 259.943H77.9753C71.5272 259.943 66.3457 254.716 66.3457 248.341C66.3457 241.909 71.5848 236.74 77.9753 236.74H233.018C239.466 236.74 244.647 241.967 244.647 248.341C244.647 254.716 239.466 259.943 233.018 259.943Z" fill="#141213"/>
<path d="M119.658 208.542C120.637 214.17 116.895 218.707 111.253 218.707C105.611 218.707 100.256 214.17 99.2775 208.542C98.2988 202.914 102.041 198.377 107.683 198.377C113.325 198.377 118.679 202.914 119.658 208.542Z" fill="white"/>
<path d="M202.217 127.048C202.217 128.196 201.296 129.173 200.087 129.173C198.878 129.173 197.957 128.254 197.957 127.048C197.957 125.842 198.878 124.923 200.087 124.923C201.296 124.923 202.217 125.842 202.217 127.048Z" fill="#141213"/>
<path d="M221.965 131.872C221.965 133.02 221.043 133.997 219.834 133.997C218.625 133.997 217.704 133.078 217.704 131.872C217.704 130.723 218.625 129.747 219.834 129.747C221.043 129.747 221.965 130.723 221.965 131.872Z" fill="#141213"/>
<path d="M207.285 119.065C206.824 120.156 205.615 120.501 204.521 120.156C203.542 119.869 202.679 119.122 201.93 118.49C201.182 117.916 200.491 117.284 199.743 116.768C198.994 116.251 198.188 115.849 197.325 115.619C191.913 114.068 199.858 111.139 202.967 112.518C204.521 113.264 205.96 114.47 206.766 116.021C207.227 116.94 207.688 118.088 207.285 119.065Z" fill="#141213"/>
<path d="M198.015 135.49C193.063 135.49 189.091 131.47 189.091 126.588C189.091 121.649 193.121 117.686 198.015 117.686C202.966 117.686 206.938 121.707 206.938 126.588C206.938 131.527 202.966 135.49 198.015 135.49ZM198.015 119.639C194.157 119.639 191.048 122.74 191.048 126.588C191.048 130.436 194.157 133.537 198.015 133.537C201.872 133.537 204.981 130.436 204.981 126.588C204.981 122.74 201.872 119.639 198.015 119.639Z" fill="white"/>
<path d="M206.822 121.534C206.362 120.386 204.462 120.903 204.922 122.051C206.131 125.038 207.34 128.656 204.807 131.298C203.771 132.389 202.274 132.963 201.698 134.399C201.18 135.72 201.468 137.213 202.447 138.304C203.31 139.223 204.692 137.845 203.828 136.926C203.425 136.524 203.31 135.949 203.425 135.375C203.598 134.686 204.231 134.341 204.749 133.939C205.901 133.078 206.995 132.044 207.571 130.723C209.01 127.737 208.031 124.406 206.822 121.534Z" fill="#EE796A"/>
<path d="M227.375 128.541C225.13 126.761 222.827 124.98 219.949 124.521C218.624 124.291 217.185 123.946 216.609 122.511C215.976 120.903 216.782 118.72 218.509 118.318C220.121 117.916 223.864 120.386 225.13 121.247C227.203 122.683 228.642 124.865 229.103 127.45C229.275 128.311 228.124 129.115 227.375 128.541Z" fill="#141213"/>
<path d="M255.471 112.518C255.24 113.953 255.01 115.389 254.722 116.768C254.147 119.467 253.225 122.166 251.613 124.463C248.85 128.483 246.547 132.676 241.653 132.733C241.481 132.906 240.272 134.227 240.099 134.399C239.408 135.088 240.156 135.49 239.408 136.122C238.832 136.581 234.457 137.96 233.708 138.074C232.845 138.189 233.075 134.399 232.845 133.48C232.672 132.791 232.902 131.872 233.018 131.183C233.421 128.483 234.284 125.497 236.529 123.774C234.975 121.477 235.551 118.433 237.623 116.71C237.22 116.653 236.76 116.595 236.357 116.423C233.996 115.619 232.212 113.264 232.154 110.795C229.851 112.001 227.26 112.69 224.612 112.575C221.964 112.46 219.373 111.599 217.243 109.933C215.746 108.785 214.422 107.062 214.249 105.167C213.04 105.798 211.601 105.913 210.276 105.281C209.067 104.707 208.319 103.444 208.204 102.18C206.131 102.927 204.001 103.444 201.756 103.271C199.856 103.156 197.956 102.525 196.401 101.319C194.789 100.055 193.868 98.2748 193.58 96.2648C193.293 94.1398 193.293 91.7852 194.329 89.8325C194.962 88.6265 195.998 87.7076 197.265 87.1907C197.265 86.9035 197.438 86.6164 197.726 86.3867C199.51 85.1232 201.583 84.4915 203.713 84.032C206.131 83.4577 208.549 82.9408 211.025 82.5388C215.803 81.7348 220.639 81.5051 225.36 82.826C226.282 83.0557 227.145 83.3429 228.009 83.6874C231.578 84.0895 235.09 85.0083 238.199 86.8461C241.538 88.7988 243.899 91.6703 245.626 95.0587C246.662 97.0114 247.468 99.0214 248.389 100.974C249.08 102.008 249.713 103.099 250.232 104.248C252.477 104.822 254.953 105.856 255.586 108.268C256.046 109.646 255.701 111.139 255.471 112.518Z" fill="#141213"/>
<path d="M243.439 142.439C247.732 142.439 251.212 138.968 251.212 134.686C251.212 130.404 247.732 126.933 243.439 126.933C239.147 126.933 235.667 130.404 235.667 134.686C235.667 138.968 239.147 142.439 243.439 142.439Z" fill="#F6B399"/>
<path d="M119.486 136.409C118.968 138.534 117.644 140.199 114.823 141.118C112.059 141.98 109.181 142.611 106.36 143.301C103.481 144.047 100.602 144.851 97.6087 144.909C94.7876 144.966 87.188 143.588 84.7124 142.209C80.1642 139.682 79.7612 139.108 76.1342 135.433C74.6373 133.882 73.2555 129.977 71.9313 128.311C70.895 129.977 62.7198 130.091 60.7047 127.909C58.5745 125.612 57.0777 122.74 56.3868 119.696C55.0051 113.437 57.308 106.775 62.144 102.582C62.3168 102.41 62.5471 102.295 62.7774 102.295C64.9651 97.2411 69.8012 93.3358 75.2706 92.4743C76.4796 89.7176 78.7249 87.5353 81.5459 86.3292C82.2944 85.9846 83.1004 85.7549 83.9064 85.5826C81.8338 80.5287 79.4733 75.5896 76.7674 70.8803C74.9251 67.6068 72.6798 64.6204 70.8375 61.3468C69.2831 58.5901 68.3619 54.972 70.2042 52.1005C71.9889 49.3438 75.5584 48.9418 78.5522 49.6309C81.5459 50.3775 84.1366 52.3302 86.2668 54.57C88.5697 57.0395 90.4121 59.9685 92.1968 62.8975C94.0967 66.0562 95.8814 69.3297 97.4934 72.6607C101.005 80.0118 106.187 89.5453 109.296 97.1262C111.829 103.271 114.88 109.244 116.838 115.562C118.392 120.615 119.371 125.842 119.716 131.125C119.889 133.02 119.889 134.858 119.486 136.409Z" fill="#F6B399"/>
<path d="M266.237 214.457C265.144 217.099 262.553 218.765 259.789 219.224C258.177 219.511 256.565 219.339 254.953 219.224C253.226 219.109 251.959 219.741 250.578 220.775C247.929 222.785 245.339 224.68 242.46 226.346C240.56 227.437 237.624 228.585 235.782 227.035C234.515 226.403 233.594 224.623 233.421 223.302C233.248 221.636 233.824 219.856 234.63 218.248C232.615 220.258 230.6 222.555 227.837 223.417C224.555 224.393 221.561 222.325 220.467 219.224C220.295 218.707 220.179 218.133 220.122 217.616C217.186 219.396 213.847 218.075 212.119 215.204C210.335 212.39 210.392 208.657 211.601 205.613C212.925 202.282 215.343 199.64 217.992 197.286C220.064 195.448 222.252 193.782 224.613 192.346C223.691 192.117 222.713 191.944 221.734 191.887C217.819 191.657 214.019 192.978 210.622 194.759C207.801 196.252 204.577 198.606 201.238 197.171C198.59 196.022 197.611 192.921 197.784 190.222C198.302 183.674 203.656 178.965 209.529 176.955C212.695 175.921 216.149 175.462 219.489 175.404C222.425 175.404 225.476 175.749 228.24 176.783C231.003 177.874 233.364 179.539 235.091 181.952C235.954 183.158 236.703 184.536 237.509 185.799C239.869 185.397 242.402 186.087 244.302 187.58C245.511 188.556 246.317 189.877 246.893 191.313C247.181 192.002 247.469 192.748 247.699 193.495C250.981 193.093 254.262 195.275 256.22 197.802C257.371 199.296 257.774 200.961 257.602 202.569C259.789 202.569 261.977 203.775 263.532 205.498C265.719 207.91 267.562 211.241 266.237 214.457Z" fill="#F6B399"/>
<path d="M257.084 259.943C257.142 251.5 256.796 240.876 255.99 233.467C255.127 233.065 254.263 232.606 253.4 232.089C247.527 228.241 245.512 221.694 244.246 215.147C240.388 211.184 236.819 207.049 233.307 202.856C231.752 200.961 230.083 199.066 228.643 197.056C227.319 195.161 226.168 192.863 226.34 190.509C226.571 187.982 228.125 185.914 230.255 184.823C229.852 184.651 229.449 184.421 229.046 184.249C227.837 183.674 228.874 181.894 230.083 182.468C236.588 185.397 243.152 188.441 249.312 192.232C256.566 196.711 263.244 201.363 268.944 207.853C274.471 214.113 278.847 221.349 282.128 229.045C286.504 239.267 290.591 249.605 294.449 260H257.084V259.943Z" fill="#F6B399"/>
<path d="M245.569 134.456C243.554 134.112 241.482 133.997 239.466 134.112C238.948 134.169 238.43 134.514 238.488 135.088C238.488 135.605 238.948 136.122 239.466 136.064C240.445 136.007 241.366 135.949 242.345 136.007C243.324 136.064 244.187 136.122 245.051 136.294C245.569 136.409 246.145 136.179 246.26 135.605C246.318 135.203 246.087 134.571 245.569 134.456Z" fill="#EE796A"/>
<path d="M213.732 141.578C210.623 142.439 206.996 143.415 203.944 141.922C203.484 141.693 202.908 141.807 202.62 142.267C202.39 142.669 202.505 143.358 202.966 143.588C206.593 145.368 210.565 144.449 214.307 143.473C215.516 143.128 214.998 141.233 213.732 141.578Z" fill="#EE796A"/>
<path d="M103.25 102.869C102.674 102.754 102.214 103.042 102.041 103.558L100.717 107.177C100.544 107.636 100.889 108.268 101.408 108.383C101.983 108.498 102.444 108.21 102.617 107.694C103.077 106.487 103.48 105.281 103.941 104.075C104.114 103.616 103.711 102.984 103.25 102.869Z" fill="#EE796A"/>
<path d="M101.926 106.889C97.2048 103.616 91.39 101.204 85.5176 101.836C80.624 102.352 76.0757 104.994 73.0243 108.9C71.2971 111.082 70.0306 113.666 69.5125 116.423C69.2822 117.629 71.1821 118.203 71.4124 116.94C72.276 112.575 74.9819 108.727 78.7241 106.315C82.9269 103.616 87.8205 103.156 92.5414 104.535C95.5352 105.396 98.2987 106.889 100.889 108.67C101.983 109.302 102.962 107.579 101.926 106.889Z" fill="#EE796A"/>
<path d="M87.36 116.768C85.6904 117.284 84.539 118.548 83.4451 119.811C82.2361 121.19 80.8543 122.223 79.0695 122.683C77.4575 123.142 75.5001 123.142 73.9456 122.396C72.1609 121.534 71.47 119.065 71.3549 117.227C71.2397 115.964 69.2823 115.964 69.3975 117.227C69.5702 119.409 70.3185 121.936 72.0457 123.43C73.6002 124.75 75.9606 125.095 77.9181 124.865C79.9907 124.636 81.8907 123.889 83.5027 122.568C84.9996 121.362 86.0359 119.237 87.9358 118.663C89.0872 118.261 88.569 116.366 87.36 116.768Z" fill="#EE796A"/>
<path d="M101.409 132.389C101.063 131.585 100.315 131.7 99.8545 132.102C99.8545 131.987 99.7393 132.044 99.4515 132.044C99.2212 132.044 98.9909 131.987 98.7606 131.987C98.3576 131.929 97.8969 131.929 97.4939 131.872C96.6304 131.757 95.7092 131.585 94.9032 131.355C93.2336 130.896 91.7368 130.092 90.5278 128.828C88.2824 126.416 87.5916 122.855 86.9583 119.754C86.728 118.49 84.8281 119.065 85.0584 120.271C85.8068 124.061 86.7855 128.196 89.7793 130.896C91.3337 132.274 93.2912 133.078 95.3638 133.537C96.4001 133.767 97.494 133.882 98.5303 133.997C99.5666 134.112 100.718 134.399 101.409 133.422C101.639 133.078 101.524 132.733 101.409 132.389Z" fill="#EE796A"/>
<path d="M88.4538 93.6804C87.475 90.694 86.266 87.765 84.8267 84.9509C84.5964 84.4914 83.9056 84.3192 83.5026 84.6063C83.042 84.8935 82.9268 85.4678 83.1571 85.9272C84.5389 88.569 85.6327 91.3257 86.5538 94.1973C86.7266 94.7141 87.2448 95.0013 87.7629 94.8864C88.2811 94.7716 88.6265 94.1973 88.4538 93.6804Z" fill="#EE796A"/>
<path d="M83.8478 84.5489C76.0755 85.6975 69.6849 93.7378 71.5848 101.663C72.103 103.846 73.3121 105.741 75.1544 107.062C76.1907 107.808 77.1694 106.085 76.1331 105.339C72.5636 102.754 72.6212 97.2985 74.406 93.6804C76.3059 89.8325 80.0481 87.0184 84.366 86.3866C85.6326 86.2718 85.1144 84.3766 83.8478 84.5489Z" fill="#EE796A"/>
<path d="M74.1761 91.6129C69.0521 92.1872 64.2736 95.2884 62.0859 99.9977C59.9557 104.592 60.7041 110.163 63.8131 114.183C65.2524 115.964 68.5916 119.18 70.9521 116.94C71.8733 116.078 70.4914 114.7 69.5703 115.562C68.937 116.193 67.5553 115.045 67.0372 114.643C66.2887 114.011 65.5979 113.322 65.0221 112.518C63.8707 110.852 63.0647 108.9 62.892 106.889C62.4314 102.697 64.3313 98.7343 67.6129 96.2073C69.5128 94.7716 71.758 93.7952 74.1761 93.5655C75.4427 93.3932 75.4427 91.4406 74.1761 91.6129Z" fill="#EE796A"/>
<path d="M74.5786 124.004C71.297 127.909 65.6548 128.828 61.3944 125.956C56.9613 122.97 56.1554 117.17 57.7098 112.345C58.631 109.416 60.3582 106.832 62.3156 104.477C63.1216 103.501 61.7398 102.123 60.9338 103.099C57.0189 107.751 54.0828 113.609 55.2918 119.869C56.3857 125.612 61.6247 129.977 67.5546 129.632C70.7787 129.46 73.8877 127.909 76.0179 125.382C76.7663 124.463 75.3846 123.085 74.5786 124.004Z" fill="#EE796A"/>
<path d="M87.0141 141.176C79.8176 140.774 75.7299 133.825 73.1967 127.909C72.9665 127.392 72.2756 127.335 71.8725 127.565C71.3544 127.852 71.2969 128.426 71.5272 128.885C74.3482 135.547 79.0692 142.669 87.0717 143.128C88.2808 143.243 88.2231 141.291 87.0141 141.176Z" fill="#EE796A"/>
<path d="M240.733 185.57C236.127 185.053 231.637 187.063 227.722 189.188C223.864 191.313 220.295 193.897 217.186 196.941C214.134 199.87 210.91 203.316 209.817 207.508C208.78 211.299 209.701 215.836 213.328 217.961C214.998 218.937 217.186 219.282 219.028 218.592C219.892 218.248 220.986 217.444 220.41 216.41C219.949 215.549 218.395 215.778 218.28 216.755C218.164 216.812 217.992 216.869 217.877 216.869C217.589 216.927 217.301 216.984 217.013 216.984C216.265 216.984 215.574 216.869 214.883 216.582C213.559 216.008 212.58 214.974 211.947 213.653C210.565 210.552 211.659 206.991 213.386 204.235C215.228 201.363 217.819 198.836 220.41 196.596C223.058 194.357 225.879 192.346 228.931 190.738C232.558 188.786 236.53 187.063 240.733 187.522C241.999 187.695 241.999 185.742 240.733 185.57Z" fill="#EE796A"/>
<path d="M246.95 193.151C239.408 196.367 232.442 200.846 226.397 206.36C223.633 208.887 220.064 211.873 219.2 215.721C218.797 217.559 218.912 219.569 220.064 221.177C220.985 222.498 222.482 223.359 224.036 223.704C228.527 224.68 232.269 221.809 235.493 219.167C236.472 218.363 235.09 216.984 234.112 217.788C231.578 219.913 228.585 222.383 225.073 221.923C223.749 221.751 222.367 221.177 221.618 220.028C220.64 218.535 220.812 216.582 221.503 215.032C222.194 213.424 223.403 212.103 224.555 210.897C225.821 209.576 227.145 208.37 228.469 207.164C231.175 204.809 234.054 202.627 237.048 200.674C240.502 198.434 244.129 196.539 247.871 194.931C249.08 194.357 248.102 192.634 246.95 193.151Z" fill="#EE796A"/>
<path d="M261.171 219.511C257.198 218.075 252.88 219.224 249.253 221.004C247.296 221.923 245.396 223.072 243.496 224.106C241.769 225.025 239.696 226.173 237.681 226.058C235.954 225.944 234.918 224.508 234.687 222.9C234.4 221.062 235.321 219.282 236.357 217.846C238.66 214.687 241.999 212.16 245.281 210.15C249.081 207.795 253.111 205.958 257.198 204.12C258.35 203.603 257.371 201.88 256.22 202.397C248.563 205.843 240.272 209.576 235.033 216.41C232.845 219.282 231.463 223.819 234.515 226.69C237.969 229.906 243.093 226.633 246.317 224.852C250.635 222.44 255.644 219.626 260.71 221.464C261.804 221.808 262.322 219.913 261.171 219.511Z" fill="#EE796A"/>
<path d="M252.881 147.78C252.824 153.408 249.945 158.864 245.627 162.827C240.906 167.077 234.516 169.432 227.952 170.006C224.613 170.293 221.101 170.178 217.819 169.546C216.265 169.259 214.711 168.685 213.674 167.594C211.026 164.78 213.962 163.229 216.323 161.908C224.901 157.199 239.755 148.929 248.39 144.277C250.809 142.841 252.881 142.209 252.881 147.78Z" fill="#6CBE45"/>
<path d="M275.967 145.138C275.737 150.709 271.592 155.016 267.159 157.888C264.683 159.496 262.035 160.76 259.386 162.023C256.565 163.344 253.744 164.607 250.923 165.871C247.641 167.307 244.302 168.628 240.905 169.834C239.754 170.293 240.215 172.188 241.424 171.729C247.641 169.432 253.802 166.847 259.789 163.976C265.201 161.391 270.901 158.692 274.643 153.81C276.543 151.283 277.809 148.297 277.982 145.138C277.982 143.875 276.025 143.932 275.967 145.138Z" fill="#141213"/>
<path d="M227.433 153.006C223.691 154.729 219.661 155.82 215.573 156.165L214.537 154.27C218.625 153.983 222.655 153.006 226.397 151.283C227.549 150.824 228.585 152.489 227.433 153.006Z" fill="#EE796A"/>
<path d="M258.062 98.4471C257.544 99.4809 256.393 99.9978 255.299 100.055C254.781 100.113 254.263 100.055 253.744 99.9978C253.111 99.9403 252.593 99.8255 252.132 99.3661C251.787 99.0215 251.787 98.562 251.96 98.16C251.787 97.8154 251.844 97.4134 252.075 97.1262C251.787 96.9539 251.614 96.6094 251.614 96.3222C251.729 95.231 252.132 94.3121 252.823 93.5081C253.111 93.1635 253.514 92.8189 253.917 92.5892C254.666 92.1872 255.587 92.5318 255.817 93.3932C255.99 93.9101 255.875 94.4844 255.759 95.0013C256.393 95.0587 256.968 95.3459 257.487 95.7479C258.408 96.3797 258.523 97.5282 258.062 98.4471Z" fill="#141213"/>
<path d="M219.431 140.601C214.479 140.601 210.507 136.581 210.507 131.7C210.507 126.761 214.537 122.798 219.431 122.798C224.382 122.798 228.354 126.818 228.354 131.7C228.412 136.581 224.382 140.601 219.431 140.601ZM219.431 124.693C215.573 124.693 212.464 127.794 212.464 131.642C212.464 135.49 215.573 138.591 219.431 138.591C223.288 138.591 226.397 135.49 226.397 131.642C226.454 127.852 223.288 124.693 219.431 124.693Z" fill="white"/>
<path d="M211.947 129.862C210.508 127.163 206.823 126.186 204.175 127.622C203.714 127.852 203.541 128.541 203.829 128.943C204.117 129.402 204.693 129.575 205.153 129.287C205.211 129.23 205.326 129.23 205.384 129.173C205.959 129 206.075 128.943 206.247 128.885C206.765 128.828 207.053 128.828 207.341 128.885C207.744 128.943 207.859 129 208.032 129.058C208.147 129.115 208.32 129.173 208.435 129.173C208.896 129.402 209.126 129.575 209.414 129.747C209.471 129.804 209.586 129.862 209.644 129.919C209.759 130.034 209.817 130.092 209.932 130.206C210.162 130.551 210.277 130.666 210.335 130.838C210.565 131.298 211.256 131.47 211.659 131.183C212.12 130.896 212.235 130.321 211.947 129.862Z" fill="white"/>
<path d="M223.807 224.45C221.907 224.45 219.949 224.393 218.049 224.393C217.071 224.393 216.149 224.393 215.171 224.393C215.171 224.393 214.595 224.45 214.537 224.393C214.825 223.876 215.113 223.531 215.343 223.187C217.646 220.028 220.007 216.927 222.31 213.768C222.828 213.079 221.964 212.045 221.216 212.332C217.186 213.768 213.443 215.778 209.759 217.903C210.335 214.055 210.853 210.207 211.371 206.302C211.486 205.441 210.507 204.579 209.701 205.326C206.42 208.772 203.656 212.677 201.526 216.927C198.935 213.94 196.517 210.724 194.387 207.393C193.754 206.417 192.43 207.049 192.602 208.14C193.351 212.562 194.732 216.869 196.632 220.947C197.151 222.096 198.878 221.119 198.36 219.971C197.266 217.559 196.344 215.089 195.654 212.562C197.381 214.917 199.165 217.157 201.123 219.339C201.526 219.798 202.39 219.684 202.677 219.167C204.347 215.549 206.535 212.16 209.068 209.116C208.607 212.562 208.089 216.065 207.629 219.511C207.513 220.315 208.262 221.062 209.068 220.602C212.234 218.765 215.343 216.927 218.683 215.491C217.934 216.467 217.243 217.444 216.495 218.477L214.365 221.292C213.731 222.096 212.868 223.015 212.637 223.991C212.407 224.852 212.81 225.771 213.674 226.116C214.595 226.518 215.746 226.346 216.725 226.346C217.704 226.346 218.683 226.346 219.719 226.346C217.992 227.15 216.264 228.011 214.537 228.815C213.386 229.332 214.365 231.055 215.516 230.538C218.51 229.102 221.446 227.724 224.44 226.288C225.246 225.829 224.728 224.45 223.807 224.45Z" fill="#141213"/>
<path d="M110.274 48.4249C110.274 59.7388 119.486 68.8703 130.77 68.8703H169.689C168.998 71.7992 167.559 74.4985 165.544 76.6809C164.795 77.4849 165.774 78.8058 166.753 78.2315C170.841 75.7046 175.216 72.7756 177.979 68.8703C183.852 68.8703 188.918 66.5731 192.66 62.8975C196.345 59.2219 198.648 54.1106 198.648 48.4249C198.648 37.111 189.494 27.9796 178.152 27.9796H130.77C125.128 27.9796 120.004 30.2768 116.262 33.9523C112.577 37.6854 110.274 42.7967 110.274 48.4249Z" fill="#141213"/>
<path d="M48.073 74.3836C48.073 81.8496 42.0278 87.9373 34.4858 87.9373H18.6534C19.4018 90.694 20.4382 93.4506 22.7411 95.231C23.6623 95.9776 22.4532 97.2411 21.532 96.7816C18.4807 95.231 15.6597 93.1635 13.3568 90.6365C12.4932 89.7176 11.7448 88.7413 11.1115 87.7076C4.77854 86.559 0 81.0456 0 74.3836C0 66.9176 6.10273 60.8299 13.5871 60.8299H34.4283C42.0279 60.8874 48.073 66.9176 48.073 74.3836Z" fill="#6CBE45"/>
<path d="M158.923 92.0723C158.923 95.3459 157.598 98.3323 155.468 100.457C153.626 102.295 151.265 103.501 148.56 103.846C146.66 106.602 143.781 108.67 140.557 109.646C139.578 109.933 138.945 108.727 139.578 107.981C140.672 106.775 141.536 105.396 142.227 103.903H136.527C129.964 103.903 124.609 98.562 124.609 92.0149C124.609 88.7413 125.934 85.7549 128.064 83.63C130.194 81.505 133.188 80.1841 136.469 80.1841H147.005C153.626 80.1841 158.923 85.5252 158.923 92.0723Z" fill="#E8531E"/>
<path d="M138.83 95.9201C136.815 94.9437 134.915 93.6803 133.187 92.1871C134.972 90.8662 136.757 89.5452 138.542 88.1669C138.945 87.8223 139.175 87.3054 138.887 86.846C138.657 86.444 137.966 86.1568 137.563 86.5014L131.115 91.2681C130.654 91.6127 130.424 92.3593 130.942 92.8188C133.015 94.714 135.318 96.3221 137.851 97.5855C138.311 97.8153 138.945 97.7004 139.175 97.241C139.463 96.8389 139.29 96.1498 138.83 95.9201Z" fill="white"/>
<path d="M151.208 91.9574C151.035 91.3257 150.344 90.9237 149.884 90.5217C149.366 90.1197 148.847 89.6602 148.329 89.2582C147.235 88.3393 146.142 87.4779 145.105 86.559C144.702 86.2144 144.126 86.157 143.723 86.559C143.378 86.9036 143.32 87.5927 143.723 87.9373C144.702 88.7413 145.681 89.6028 146.66 90.4068L148.041 91.5554L148.79 92.1872C148.905 92.2446 148.963 92.3595 149.078 92.4169C148.847 92.5892 148.617 92.7615 148.444 92.8764C148.041 93.2209 147.581 93.6229 147.178 93.9675C146.314 94.7141 145.451 95.4033 144.587 96.1499C144.184 96.4945 144.242 97.1837 144.587 97.5282C144.99 97.9303 145.566 97.8728 145.969 97.5282C147.005 96.6668 148.041 95.8053 149.02 94.9439C149.538 94.5418 149.999 94.0824 150.517 93.6804C151.035 93.2784 151.438 92.704 151.208 91.9574Z" fill="white"/>
<path d="M182.527 49.9181C182.239 50.2052 181.894 50.5498 181.433 50.7221C180.915 50.8944 180.973 50.6073 180.915 50.1478C180.685 48.8269 180.57 47.506 180.397 46.1851C180.282 45.5533 179.591 44.8642 178.9 45.3236C176.367 47.1614 173.891 48.9992 171.358 50.837C170.091 51.7559 168.825 52.7322 167.501 53.5937C166.695 54.168 165.198 55.0294 164.564 53.766C164.104 52.8471 164.277 51.641 164.392 50.7221C164.449 50.3201 164.565 49.8607 164.68 49.4586C164.737 49.4012 164.852 49.3438 164.91 49.2864C166.522 48.0803 167.961 46.7594 169.343 45.2662C170.494 44.0602 171.934 42.3372 170.552 40.7292C170.264 40.3846 169.688 40.3846 169.343 40.5569C166.349 42.2224 164.046 45.0365 162.952 48.2526C162.78 48.3675 162.607 48.5398 162.434 48.6546C161.168 49.5161 159.728 50.6073 158.231 51.1242C158.174 51.1242 157.598 51.3539 157.483 51.239C157.368 51.0667 157.541 50.6073 157.598 50.435C157.886 49.7458 158.404 49.1715 158.865 48.5398C159.613 47.4486 160.074 46.1277 159.728 44.8068C159.268 43.3136 157.886 42.7967 156.447 42.969C153.338 43.2561 150.344 44.175 147.581 45.5534C147.408 45.6682 147.235 45.7257 147.005 45.8405C146.832 45.2088 146.429 44.6345 145.969 44.175C143.954 42.3372 141.248 42.8541 138.887 44.175C138.772 43.8304 138.599 43.4859 138.369 43.1987C137.621 42.3373 136.469 42.1649 135.433 42.3947C133.36 42.7967 131.345 44.2325 129.733 45.4959C127.776 47.104 126.106 49.0566 124.897 51.2964C124.264 52.3876 125.991 53.4214 126.624 52.2728C127.718 50.3201 129.1 48.5972 130.769 47.1614C131.633 46.4722 132.554 45.8405 133.475 45.2662C134.281 44.8068 135.548 44.0027 136.527 44.175C136.987 44.2899 137.16 44.6919 137.16 45.2088C136.124 45.9554 135.203 46.8168 134.512 47.6209C132.9 49.4586 131.691 51.5836 131 53.9382C130.77 54.6848 131.518 55.3166 132.209 55.1443C136.009 54.168 138.311 50.033 138.945 46.3574C139.578 45.9554 140.269 45.6108 140.96 45.3236C141.996 44.9216 143.205 44.6345 144.241 45.2662C144.875 45.6682 145.22 46.1851 145.163 46.8168C142.975 48.1952 140.96 49.9181 139.29 51.8707C138.714 52.5599 139.233 53.8808 140.269 53.5363C142.399 52.7897 144.299 51.5836 145.738 49.8607C146.199 49.3438 146.602 48.7121 146.89 48.0803C147.408 47.7932 147.926 47.506 148.444 47.2189C149.941 46.4723 151.553 45.898 153.165 45.4959C153.914 45.3237 154.662 45.1513 155.41 45.0365C155.986 44.9216 157.31 44.577 157.713 45.0939C158.519 46.1277 156.907 47.8506 156.447 48.5972C155.641 49.7458 154.95 51.641 156.216 52.7322C157.483 53.8234 159.21 52.8471 160.419 52.2153C161.053 51.8707 161.686 51.4687 162.319 51.0667C162.319 51.1241 162.319 51.239 162.262 51.2964C162.031 53.3065 162.549 55.9483 164.91 56.3503C166.119 56.5226 167.27 56.0058 168.249 55.374C169.401 54.6274 170.552 53.7085 171.646 52.9045C173.949 51.239 176.194 49.5735 178.497 47.908C178.555 48.4823 178.67 49.0566 178.727 49.6884C178.842 50.5498 178.842 51.5262 179.533 52.1579C180.857 53.4788 182.757 52.3302 183.794 51.2964C184.83 50.435 183.391 49.0566 182.527 49.9181ZM133.878 52.1579C134.512 50.9519 135.26 49.8032 136.181 48.7695C136.066 49.0566 135.951 49.2864 135.893 49.4586C135.375 50.4924 134.684 51.4687 133.878 52.1579Z" fill="white"/>
<path d="M11.689 74.6134H18.7704C19.9794 74.6134 19.9794 72.6607 18.7704 72.6607H11.689C10.48 72.6033 10.48 74.6134 11.689 74.6134Z" fill="white"/>
<path d="M22.7993 74.6134H37.1924C38.4015 74.6134 38.4015 72.6607 37.1924 72.6607H22.7993C21.5903 72.6033 21.5903 74.6134 22.7993 74.6134Z" fill="white"/>
<path d="M37.6529 77.5998H11.3999C10.1909 77.5998 10.1909 79.5524 11.3999 79.5524H37.6529C38.8619 79.5524 38.8619 77.5998 37.6529 77.5998Z" fill="white"/>
<path d="M92.6941 7.55915C79.7403 2.27552 64.6564 3.02211 52.451 9.9138C41.1093 16.2886 32.9915 27.4876 30.0553 40.065C29.4796 42.5345 33.2794 43.5683 33.8551 41.0987C36.561 29.4403 43.9303 19.2176 54.4084 13.3022C65.8078 6.92742 79.6827 6.46796 91.6578 11.3496C93.9607 12.2685 94.997 8.47805 92.6941 7.55915Z" fill="#FFD236"/>
<path d="M348.045 61.2319C343.497 57.2692 337.567 54.9146 331.579 54.6849C331.464 52.1579 331.119 49.6884 330.601 47.3911C328.47 38.4894 323.231 30.6213 315.977 25.0506C297.093 10.4631 271.704 13.1624 251.266 22.8108C248.963 23.902 250.978 27.2904 253.223 26.1992C268.25 19.0778 285.579 15.8616 301.642 21.6047C315.862 26.716 327.146 39.3508 327.607 54.7997C327.492 54.7997 327.319 54.7997 327.146 54.8571C320.238 55.8335 312.12 60.6576 311.774 68.4108C311.371 77.1977 322.08 78.0017 326.743 72.3735C329.852 68.698 331.234 63.6441 331.522 58.5901C345.224 59.1644 353.802 71.7418 353.169 85.0083C352.421 102.64 338.315 115.274 323.98 123.429C321.792 124.693 323.749 128.081 325.937 126.818C341.827 117.801 356.796 103.558 357.141 84.032C357.314 75.7045 354.493 66.8602 348.045 61.2319ZM325.764 66.2858C325.074 67.9513 324.152 69.8466 322.656 70.9952C320.813 72.4309 317.359 73.1775 316.035 70.5932C314.365 67.3196 317.762 63.3569 320.238 61.634C322.368 60.1408 324.901 59.2219 327.492 58.8198C327.319 61.3468 326.743 63.9312 325.764 66.2858Z" fill="#FFD236"/>
<path d="M225.764 2.65257C225.534 1.84854 225.074 1.15939 224.383 0.699946C223.807 0.29793 223.058 0.0682 222.31 0.0107692C221.504 -0.0466616 220.64 0.12561 219.95 0.527625C219.144 0.987072 218.568 1.61882 218.222 2.48029C218.165 2.59515 218.165 2.76745 218.165 2.88231C218.107 3.0546 218.05 3.22687 217.992 3.39916C217.762 5.00723 218.798 6.73015 220.237 7.41932C221.043 7.82134 221.965 8.05107 222.886 7.82134C223.577 7.70648 224.325 7.30449 224.786 6.73018C225.764 5.63899 226.225 4.03091 225.764 2.65257ZM223.289 4.54778C222.713 5.23695 222.598 5.29439 222.483 5.35183C222.08 5.40926 221.965 5.40924 221.907 5.40924C221.389 5.23695 221.274 5.1221 221.159 5.06467C220.871 4.83495 220.813 4.72009 220.756 4.60523C220.698 4.49037 220.64 4.43293 220.64 4.3755C220.525 4.14577 220.525 4.0309 220.525 3.97347C220.525 3.80118 220.525 3.68633 220.525 3.51403C221.159 2.76743 221.216 2.71 221.331 2.65257C221.562 2.59514 221.677 2.5377 221.792 2.5377C222.195 2.48027 222.425 2.5377 222.54 2.5377C223.174 2.88229 223.231 2.93975 223.346 2.99718C223.519 3.34176 223.519 3.45662 223.519 3.57149C223.519 3.74378 223.519 3.85861 223.519 3.97347C223.461 4.2032 223.462 4.31809 223.404 4.43295C223.346 4.43295 223.289 4.49035 223.289 4.54778Z" fill="#E8531E"/>
<path d="M42.0272 63.2995C42.0272 64.6204 41.1061 65.9987 39.897 66.573C39.1486 66.9176 38.4002 66.9751 37.5941 66.7453C36.9608 66.5731 36.3851 66.171 35.9821 65.6541C35.5791 65.1373 35.2336 64.5055 35.1185 63.8164C35.0034 63.0123 35.1185 62.2657 35.5215 61.5766C36.6154 60.0834 38.285 59.6239 39.7243 60.1408C41.106 60.5428 42.0848 61.8063 42.0272 63.2995Z" fill="#FFD236"/>
<path d="M147.466 131.412C148.042 132.274 147.12 133.365 146.257 133.308C144.415 133.25 142.745 133.422 140.903 133.939C140.154 134.169 139.175 133.422 139.291 132.618C139.636 130.321 139.981 128.024 140.327 125.727C140.327 125.497 140.269 125.44 140.212 125.325C139.809 124.693 140.212 123.889 140.787 123.544C141.478 123.142 142.169 123.544 142.572 124.119L147.466 131.412Z" fill="#FFD236"/>
<path d="M118.276 34.0098C116.607 32.4592 114.074 32.2869 112.289 33.6652C112.059 33.8375 111.886 34.1247 111.886 34.4693C111.31 35.2159 110.965 36.0773 110.907 36.9962C110.792 38.9488 112.174 40.6718 114.016 41.1887C114.995 41.4758 115.973 41.4184 116.952 41.0164C117.758 40.6718 118.507 39.9826 118.91 39.236C119.716 37.5705 119.716 35.3307 118.276 34.0098ZM116.837 37.2259C116.78 37.4557 116.78 37.5131 116.722 37.5705C116.549 37.9151 116.492 38.03 116.434 38.1448C115.283 38.6617 115.168 38.7191 114.995 38.6617C114.649 38.6043 114.534 38.5468 114.419 38.4894C114.189 38.3746 114.131 38.3171 114.074 38.2597C113.843 38.0874 113.786 38.03 113.786 37.9725C113.555 37.5131 113.555 37.3982 113.498 37.2259C113.498 37.1111 113.498 37.0536 113.498 36.9388C113.555 36.6516 113.613 36.5368 113.613 36.4793C113.786 36.1922 113.786 36.0773 113.843 36.0199C114.074 35.7902 114.131 35.7327 114.189 35.6753C114.361 35.6179 114.477 35.503 114.592 35.4456C114.707 35.3882 114.765 35.3881 114.88 35.3881C114.995 35.3881 115.11 35.3307 115.225 35.2733C115.398 35.2733 115.513 35.3307 115.571 35.3307C115.686 35.3882 115.801 35.4456 115.916 35.4456C115.973 35.503 116.031 35.503 116.146 35.5604C116.377 35.7327 116.492 35.905 116.549 35.9624C116.722 36.4219 116.779 36.5942 116.779 36.709C116.779 36.7665 116.779 36.8813 116.779 36.9388C116.837 37.1111 116.837 37.1685 116.837 37.2259Z" fill="#29A9E1"/>
</svg>
